<?xml version="1.0" encoding="utf-8"?>
<!-- Generator: Adobe Illustrator 16.2.0, SVG Export Plug-In . SVG Version: 6.00 Build 0)  -->
<!DOCTYPE svg PUBLIC "-//W3C//DTD SVG 1.1//EN" "http://www.w3.org/Graphics/SVG/1.1/DTD/svg11.dtd">
<svg version="1.1" id="Layer_1" xmlns="http://www.w3.org/2000/svg" xmlns:xlink="http://www.w3.org/1999/xlink" x="0px" y="0px"
	 width="327px" height="147px" viewBox="0 0 327 147" enable-background="new 0 0 327 147" xml:space="preserve">
<path fill="#FFFFFF" d="M168.778,0.864c-21.812,0-39.493,17.682-39.493,39.492c0,9.196,3.152,17.651,8.423,24.363
	c-0.931,7.407-4.439,15.947-14.594,21.2c10.776,0,23.198-4.356,32.365-8.373c4.156,1.486,8.632,2.302,13.299,2.302
	c21.81,0,39.491-17.681,39.491-39.492C208.27,18.546,190.588,0.864,168.778,0.864z"/>
<g>
	<g>
		<path d="M7.439,103.396c0.156-0.569,0.621-0.982,1.189-0.982h6.101c0.568,0,0.931,0.413,0.775,0.982l-2.481,12.82h14.268
			l2.482-12.82c0.154-0.569,0.62-0.982,1.189-0.982h6.1c0.568,0,0.93,0.413,0.775,0.982l-6.617,34.223
			c-0.155,0.568-0.621,0.982-1.189,0.982h-6.1c-0.568,0-0.931-0.414-0.775-0.982l2.895-15.096H11.783l-2.896,15.096
			c-0.155,0.568-0.62,0.982-1.188,0.982H1.598c-0.568,0-0.93-0.414-0.775-0.982L7.439,103.396z"/>
		<path d="M44.554,108.772c0.155-0.466,0.569-0.931,1.138-0.931h19.955c0.568,0,0.93,0.465,0.775,0.931l-0.725,3.774
			c-0.154,0.568-0.619,0.982-1.188,0.982H51.48l-1.24,6.514h12.045c0.569,0,0.932,0.413,0.775,0.981l-0.723,3.723
			c-0.053,0.568-0.568,0.981-1.138,0.981H49.104l-1.396,7.187h13.441c0.568,0,0.879,0.413,0.827,0.981l-0.724,3.723
			c-0.155,0.568-0.621,0.982-1.189,0.982H39.746c-0.568,0-0.931-0.414-0.775-0.982L44.554,108.772z"/>
		<path d="M80.654,119.681l8.686-11.114c0.361-0.466,0.775-0.725,1.395-0.725h5.895c0.879,0,1.033,0.775,0.465,1.447l-13.855,17.215
			l-2.119,11.115c-0.154,0.568-0.62,0.982-1.189,0.982h-5.893c-0.568,0-0.931-0.414-0.775-0.982l2.119-11.115l-7.082-17.215
			c-0.361-0.672,0.104-1.447,0.982-1.447h5.945c0.568,0,0.879,0.259,1.085,0.725L80.654,119.681z"/>
		<path d="M93.119,145.994c-0.465,0.259-1.034,0.155-1.24-0.258l-0.621-1.241c-0.155-0.413,0-1.034,0.414-1.292
			c1.188-0.982,2.48-2.275,3.152-4.137c-2.016-0.258-2.533-2.016-2.119-4.031c0.568-2.793,2.275-4.188,5.015-4.188
			c2.74,0,3.825,1.395,3.257,4.188C99.994,140.049,97.254,143.72,93.119,145.994z"/>
		<path d="M131.322,103.396c0.156-0.569,0.621-0.982,1.189-0.982h22.592c0.568,0,0.931,0.413,0.775,0.982l-0.827,4.342
			c-0.052,0.568-0.62,0.982-1.188,0.982h-15.51l-1.551,8.168h14.32c0.568,0,0.826,0.414,0.775,0.982l-0.827,4.343
			c-0.155,0.568-0.62,0.981-1.188,0.981h-14.32l-1.758,9.1h15.975c0.568,0,0.93,0.413,0.775,0.982l-0.828,4.342
			c-0.154,0.568-0.62,0.982-1.188,0.982H125.48c-0.568,0-0.93-0.414-0.775-0.982L131.322,103.396z"/>
		<path d="M168.34,127.383h-2.999l-1.964,10.236c-0.156,0.568-0.621,0.982-1.189,0.982h-5.894c-0.569,0-0.931-0.414-0.775-0.982
			l5.583-28.847c0.155-0.466,0.672-0.931,1.137-0.931h10.754c7.341,0,12.045,3.051,10.805,9.564
			c-0.828,3.929-3.464,7.082-8.014,8.736l5.377,10.96c0.361,0.775-0.104,1.499-0.982,1.499h-6.049c-0.517,0-0.879-0.207-1.033-0.62
			L168.34,127.383z M171.545,113.529h-3.516l-1.551,8.168h3.516c3.309,0,5.272-1.448,5.842-4.291
			C176.352,114.459,174.543,113.529,171.545,113.529z"/>
		<path d="M191.303,108.772c0.156-0.466,0.621-0.931,1.189-0.931h5.894c0.569,0,0.931,0.465,0.775,0.931l-4.704,24.143h14.164
			c0.568,0,0.828,0.413,0.775,0.981l-0.723,3.723c-0.156,0.568-0.568,0.982-1.139,0.982h-21.039c-0.569,0-0.932-0.414-0.775-0.982
			L191.303,108.772z"/>
		<path d="M234.703,107.842c0.568,0,0.879,0.311,0.932,0.725l4.135,28.795c0.053,0.672-0.465,1.24-1.137,1.24h-6.049
			c-0.568,0-0.879-0.361-0.932-0.931l-0.568-5.635h-10.805l-2.791,5.635c-0.258,0.569-0.621,0.931-1.24,0.931h-6.049
			c-0.672,0-1.033-0.568-0.672-1.24l15.354-28.795c0.207-0.414,0.621-0.725,1.189-0.725H234.703z M223.123,126.35h7.342
			l-1.293-12.252L223.123,126.35z"/>
		<path d="M254.654,118.285l-3.723,19.334c-0.154,0.568-0.621,0.982-1.189,0.982h-5.582c-0.568,0-0.932-0.414-0.775-0.982
			l5.582-28.847c0.156-0.466,0.672-0.931,1.139-0.931h7.289c0.568,0,0.879,0.207,0.982,0.568l6.461,19.748l3.773-19.386
			c0.156-0.466,0.621-0.931,1.189-0.931h5.584c0.568,0,0.93,0.465,0.775,0.931l-5.584,28.847c-0.154,0.568-0.672,0.982-1.137,0.982
			h-7.289c-0.568,0-0.879-0.207-1.035-0.62L254.654,118.285z"/>
		<path d="M293.318,139.222c-11.27,0-16.801-6.462-14.889-15.974c1.809-9.254,9.408-16.026,20.576-16.026
			c3.463,0,6.617,0.466,9.305,1.654c0.465,0.206,0.723,0.568,0.568,1.138l-1.189,4.031c-0.207,0.673-0.879,0.982-1.551,0.621
			c-2.068-1.086-4.652-1.654-7.186-1.654c-6.359,0-11.322,3.723-12.563,10.236c-1.24,6.462,2.119,10.184,8.221,10.184
			c1.188,0,2.273-0.154,3.102-0.413l1.293-6.669h-5.273c-0.568,0-0.932-0.414-0.775-0.982l0.723-3.723
			c0.053-0.568,0.568-0.982,1.139-0.982h11.684c0.568,0,0.877,0.414,0.826,0.982l-2.895,14.734c-0.156,0.672-0.465,1.033-1.035,1.24
			C300.35,138.705,296.781,139.222,293.318,139.222z"/>
		<path d="M311.801,135.035c0.619-2.896,2.223-4.188,4.963-4.188c2.844,0,3.928,1.292,3.309,4.188
			c-0.568,2.843-2.172,4.187-4.912,4.187C312.316,139.222,311.232,137.878,311.801,135.035z M325.447,102.414
			c0.57,0,0.879,0.465,0.725,0.93l-1.602,8.428l-4.188,15.768c-0.156,0.465-0.674,0.981-1.139,0.981h-4.031
			c-0.467,0-0.828-0.517-0.775-0.981l1.963-15.768l1.604-8.428c0.154-0.465,0.621-0.93,1.189-0.93H325.447z"/>
	</g>
	<path fill="#891735" d="M168.888,26.009c-6.036,0-6.579,6.202-6.579,6.202h12.543C174.852,32.211,175.182,26.009,168.888,26.009z
		 M168.778,0.864c-21.812,0-39.493,17.682-39.493,39.492c0,9.196,3.152,17.651,8.423,24.363c-0.931,7.407-4.439,15.947-14.594,21.2
		c10.776,0,23.198-4.356,32.365-8.373c4.156,1.486,8.632,2.302,13.299,2.302c21.81,0,39.491-17.681,39.491-39.492
		C208.27,18.546,190.588,0.864,168.778,0.864z M166.816,61.293c-18.871-1.046-20.295-16.82-20.295-21.894
		c0-5.075,2.16-21.307,22.832-21.307c20.674,0,20.204,15.245,20.204,21.165l-27.721-0.048c0,0-0.657,14.565,10.243,14.565
		c6.906,0,11.322-7.471,11.368-7.705l7.049,3.57C190.497,49.641,186.081,62.358,166.816,61.293z"/>
</g>
</svg>
